<?xml version="1.0" encoding="UTF-8"?>
<svg id="Capa_1" xmlns="http://www.w3.org/2000/svg" version="1.1" viewBox="0 0 841.89 308.16">
  <!-- Generator: Adobe Illustrator 29.6.1, SVG Export Plug-In . SVG Version: 2.1.1 Build 9)  -->
  <defs>
    <style>
      .st0 {
        fill: #fff;
      }

      .st1 {
        fill: #ffd900;
      }
    </style>
  </defs>
  <path class="st1" d="M245.35,185.7l-17.32.15s14.97-39.82,15.68-41.72c2.52-4.68,1.6-9.82.65-11.42-8.76-10.52-18.98-1.31-18.98-1.31l-31,30.35s12.27-31,12.81-32.75c.56-1.76,5.18-13.9-5.06-15.78-10.71-1.4-16.04,4.43-19.03,7.41-2.98,2.98-32.15,35.96-32.15,35.96,0,0,13.52-39.57,14.78-42.88,3.65-8.56-5.26-10.57-5.26-10.57,0,0-43.32-11.82-47.38-12.87-4.05-1.05-6.26,1.51-7.01,2.96-3.86,8.26,4.56,12.32,8.97,13.52,4.41,1.2,5.25-1.6,5.76-2.1.5-.51.54-1.06,3-.86,4.7.66,17.93,9,17.93,9l-29.44,83.76h15.97c6.81-.71,10.82-6.31,10.82-6.31l40.12-47.98s-16.38,41.47-17.08,44.33c-2.1,9.26,5.45,10.82,6.85,10.82,9.12.7,14.03-5.16,14.03-5.16l33.66-36.41s-10.82,28-11.67,30.25c-3.36,10.67,7.22,10.32,7.22,10.32,0,0,28.89.09,30.64.09,6.16-.84,7.72-4.55,7.72-5.61.85-5.26-5.22-5.2-5.22-5.2"/>
  <path class="st1" d="M124.05,200.45c-3.7-3.03-9.69-1.84-13.39,2.65-3.7,4.5-3.7,10.61,0,13.65,3.69,3.04,9.69,1.85,13.39-2.65,3.7-4.51,3.69-10.61,0-13.64M119.83,210.64c-1.36,1.68-3.58,2.12-4.95.99-1.38-1.13-1.38-3.39,0-5.06,1.37-1.67,3.59-2.12,4.95-.99,1.38,1.13,1.38,3.4,0,5.06"/>
  <path class="st1" d="M223.56,200.45c-3.7-3.03-9.69-1.84-13.38,2.65-3.71,4.5-3.69,10.61,0,13.65,3.7,3.04,9.7,1.85,13.39-2.65,3.69-4.51,3.69-10.61,0-13.64M219.35,210.64c-1.36,1.68-3.59,2.12-4.96.99-1.38-1.13-1.38-3.39,0-5.06,1.37-1.67,3.6-2.12,4.96-.99,1.38,1.13,1.38,3.4,0,5.06"/>
  <path class="st0" d="M309.92,156c-1.85-1.85-15.59-5.04-14.47-11.32,0-2.35,1.81-7.07,7.4-7.07s5.94,3.7,5.94,5.94c-.58,2.24-.67,3.48-.67,3.48h17.27s5.82-18.39-10.65-20.85c-2.69,0-20.3-3.48-30.62,7.5-3.07,3.09-9.07,11.44-8.29,18.05.79,6.62,2.03,11.43,14.58,17.26,2.24.79,10.87,4.71,5.38,11.43-2.3,2.3-16.15,6.28-10.99-6.73h-17.6s-7.85,19.29,8.97,21.64c2.69,0,20.07,3.47,31.38-7.85,1.97-1.96,7.52-6.72,9.87-18.05,0-2.01,1.23-9.87-7.51-13.45"/>
  <path class="st0" d="M360.13,193.33l23.43-66.13h-18.51s-17.64,49.82-18.26,50.43c-.62.62-1.45,2.8-5.83,2.8-5.83,0-3.15-5.93-3.15-5.93l16.89-47.3h-18.33s-18.96,52.45-20.08,55.48c-3.15,10.2,7.06,12.67,10.2,12.67,9.75,1.11,18.84-9.08,18.84-9.08l-2.36,7.06h17.15Z"/>
  <path class="st0" d="M423.57,125.62c-2.69,0-11.33-1.12-19.16,9.41,0-.78,2.47-7.83,2.47-7.83h-17.6l-31.97,88.66h18.84l10.99-28.24s.77,8.3,10.97,8.3,17.16-9.76,19.96-14.92c2.8-5.16,14.12-36.54,14.12-36.54,0,0,5.94-16.82-8.62-18.83M412.24,148.38c-.77,3.13-9.85,27.12-9.85,27.12,0,0-2.58,5.05-6.62,5.05s-5.27-2.8-4.03-7.06c1.23-4.26,9.87-26.68,9.87-26.68,0,0,3.13-6.28,7.84-6.28s3.58,4.71,2.8,7.85"/>
  <path class="st0" d="M459.67,171.36s-1.57,4.71-3.13,7.06c-1.86,2.77-2.35,4.26-8.3,4.26s-3.14-7.74-3.14-7.74l4.82-11.09h30.94s5.5-13.34,7.4-18.39c6.73-22.31-18.38-19.62-18.38-19.62h-2.36c-.78,0-6.28.35-9.86,1.24-14.01,3.47-19.18,16.82-19.18,16.82l-11.31,30.94c-2.02,5.61-1.68,8.74-.79,11.89,5.39,10.98,23.1,8.51,25.9,8.51,19.51-1.45,25.79-23.87,25.79-23.87h-18.38ZM458.99,140.76c1.96-2.87,6.45-2.87,8.96-2.25,5.06.68-.78,12.89-.78,12.89h-13.33s3.48-7.51,5.15-10.65"/>
  <path class="st0" d="M523.36,146.81s6.72-18.5,6.72-20.52c-10.54-.67-18.39,10.2-18.39,10.2l3.34-9.29h-16.5l-23.44,66.07h18.98s12.13-36.71,13.59-40.64c4.26-7.73,15.7-5.83,15.7-5.83"/>
  <path class="st0" d="M596.21,125.4c-10.37,0-17.61,7.68-18.16,8.38-.02-4.25-4.05-8.16-10.66-8.16s-11.2,3.7-14.9,7.4c-3.7,3.71-3.47,1.58-3.47,1.58l2.87-7.39h-16.82l-23.33,66.07h18.16s15.64-44,16.87-46.69c1.91-4.25,5.5-5.82,6.95-5.82,5.5,0,3.26,5.82,3.26,5.82l-16.14,46.64h17.26s16.47-45.07,18.05-48.2c2.13-3.7,4.26-3.93,6.27-3.93,4.26.79,3.15,5.16,3.15,5.16l-17.15,47.03h19.96s18.49-52.96,19.27-56.11c2.36-9.86-6.61-11.76-11.44-11.76"/>
  <path class="st0" d="M661.89,142.99s4.71-14.58-9.31-16.93c-7.17-.78-14.57-1.23-22.42.79-4.51,1.57-12.89,4.71-18.5,15.37-.67,2.24-1.9,6.27-1.9,6.27l18.83-.11s1.57-9.75,9.76-10.88c2,0,6.72,1.12,5.15,6.17-.79,2.35-3.15,7.96-13.51,10.03-3.31.95-17.48,2.91-27.29,14.29-3.48,3.92-12.57,24.43,3.14,27.57,2.69,0,11.99,2.13,21.63-7.51.34-.47.03,5.21.03,5.21h17.58s.9-6.55,2.01-10.36c1.13-3.82,14.8-39.91,14.8-39.91M630.5,176.07c-1.68,3.47-5.04,5.94-7.86,5.94-6.15,0-5.82-4.37-4.25-8.75,4.25-8.97,18.05-11.66,18.05-11.66-.79,2.02-4.26,10.99-5.94,14.46"/>
  <polygon class="st0" points="719.27 127.2 701.2 127.2 687.9 145.35 688.69 127.2 670.63 127.2 672.98 160.26 646.61 193.27 665.49 193.22 678.48 174.83 678.48 193.27 696.83 193.27 693.06 160.26 719.27 127.2"/>
</svg>