<?xml version="1.0" encoding="UTF-8"?>
<svg id="Capa_1" xmlns="http://www.w3.org/2000/svg" version="1.1" viewBox="0 0 841.89 308.16">
  <!-- Generator: Adobe Illustrator 29.6.1, SVG Export Plug-In . SVG Version: 2.1.1 Build 9)  -->
  <defs>
    <style>
      .st0 {
        fill: #fff;
      }

      .st1 {
        fill: #ffd900;
      }

      .st2 {
        fill: #ffd803;
      }
    </style>
  </defs>
  <path class="st1" d="M242.57,157.93l-17.32.15s14.97-39.82,15.68-41.72c2.52-4.68,1.6-9.82.65-11.42-8.76-10.52-18.98-1.31-18.98-1.31l-31,30.35s12.27-31,12.81-32.75c.56-1.76,5.18-13.9-5.06-15.78-10.71-1.4-16.04,4.43-19.03,7.41-2.98,2.98-32.15,35.96-32.15,35.96,0,0,13.52-39.57,14.78-42.88,3.65-8.56-5.26-10.57-5.26-10.57,0,0-43.32-11.82-47.38-12.87-4.05-1.05-6.26,1.51-7.01,2.96-3.86,8.26,4.56,12.32,8.97,13.52,4.41,1.2,5.25-1.6,5.76-2.1.5-.51.54-1.06,3-.86,4.7.66,17.93,9,17.93,9l-29.44,83.76h15.97c6.81-.71,10.82-6.31,10.82-6.31l40.12-47.98s-16.38,41.47-17.08,44.33c-2.1,9.26,5.45,10.82,6.85,10.82,9.12.7,14.03-5.16,14.03-5.16l33.66-36.41s-10.82,28-11.67,30.25c-3.36,10.67,7.22,10.32,7.22,10.32,0,0,28.89.09,30.64.09,6.16-.84,7.72-4.55,7.72-5.61.85-5.26-5.22-5.2-5.22-5.2"/>
  <path class="st1" d="M121.28,172.68c-3.7-3.03-9.69-1.84-13.39,2.65-3.7,4.5-3.7,10.61,0,13.65,3.69,3.04,9.69,1.85,13.39-2.65,3.7-4.51,3.69-10.61,0-13.64M117.05,182.86c-1.36,1.68-3.58,2.12-4.95.99-1.38-1.13-1.38-3.39,0-5.06,1.37-1.67,3.59-2.12,4.95-.99,1.38,1.13,1.38,3.4,0,5.06"/>
  <path class="st1" d="M220.78,172.68c-3.7-3.03-9.69-1.84-13.38,2.65-3.71,4.5-3.69,10.61,0,13.65,3.7,3.04,9.7,1.85,13.39-2.65,3.69-4.51,3.69-10.61,0-13.64M216.57,182.86c-1.36,1.68-3.59,2.12-4.96.99-1.38-1.13-1.38-3.39,0-5.06,1.37-1.67,3.6-2.12,4.96-.99,1.38,1.13,1.38,3.4,0,5.06"/>
  <path class="st0" d="M307.14,128.22c-1.85-1.85-15.59-5.04-14.47-11.32,0-2.35,1.81-7.07,7.4-7.07s5.94,3.7,5.94,5.94c-.58,2.24-.67,3.48-.67,3.48h17.27s5.82-18.39-10.65-20.85c-2.69,0-20.3-3.48-30.62,7.5-3.07,3.09-9.07,11.44-8.29,18.05.79,6.62,2.03,11.43,14.58,17.26,2.24.79,10.87,4.71,5.38,11.43-2.3,2.3-16.15,6.28-10.99-6.73h-17.6s-7.85,19.29,8.97,21.64c2.69,0,20.07,3.47,31.38-7.85,1.97-1.96,7.52-6.72,9.87-18.05,0-2.01,1.23-9.87-7.51-13.45"/>
  <path class="st0" d="M357.36,165.56l23.43-66.13h-18.51s-17.64,49.82-18.26,50.43c-.62.62-1.45,2.8-5.83,2.8-5.83,0-3.15-5.93-3.15-5.93l16.89-47.3h-18.33s-18.96,52.45-20.08,55.48c-3.15,10.2,7.06,12.67,10.2,12.67,9.75,1.11,18.84-9.08,18.84-9.08l-2.36,7.06h17.15Z"/>
  <path class="st0" d="M420.8,97.84c-2.69,0-11.33-1.12-19.16,9.41,0-.78,2.47-7.83,2.47-7.83h-17.6l-31.97,88.66h18.84l10.99-28.24s.77,8.3,10.97,8.3,17.16-9.76,19.96-14.92c2.8-5.16,14.12-36.54,14.12-36.54,0,0,5.94-16.82-8.62-18.83M409.46,120.6c-.77,3.13-9.85,27.12-9.85,27.12,0,0-2.58,5.05-6.62,5.05s-5.27-2.8-4.03-7.06c1.23-4.26,9.87-26.68,9.87-26.68,0,0,3.13-6.28,7.84-6.28s3.58,4.71,2.8,7.85"/>
  <path class="st0" d="M456.89,143.58s-1.57,4.71-3.13,7.06c-1.86,2.77-2.35,4.26-8.3,4.26s-3.14-7.74-3.14-7.74l4.82-11.09h30.94s5.5-13.34,7.4-18.39c6.73-22.31-18.38-19.62-18.38-19.62h-2.36c-.78,0-6.28.35-9.86,1.24-14.01,3.47-19.18,16.82-19.18,16.82l-11.31,30.94c-2.02,5.61-1.68,8.74-.79,11.89,5.39,10.98,23.1,8.51,25.9,8.51,19.51-1.45,25.79-23.87,25.79-23.87h-18.38ZM456.22,112.98c1.96-2.87,6.45-2.87,8.96-2.25,5.06.68-.78,12.89-.78,12.89h-13.33s3.48-7.51,5.15-10.65"/>
  <path class="st0" d="M520.58,119.04s6.72-18.5,6.72-20.52c-10.54-.67-18.39,10.2-18.39,10.2l3.34-9.29h-16.5l-23.44,66.07h18.98s12.13-36.71,13.59-40.64c4.26-7.73,15.7-5.83,15.7-5.83"/>
  <path class="st0" d="M593.43,97.62c-10.37,0-17.61,7.68-18.16,8.38-.02-4.25-4.05-8.16-10.66-8.16s-11.2,3.7-14.9,7.4c-3.7,3.71-3.47,1.58-3.47,1.58l2.87-7.39h-16.82l-23.33,66.07h18.16s15.64-44,16.87-46.69c1.91-4.25,5.5-5.82,6.95-5.82,5.5,0,3.26,5.82,3.26,5.82l-16.14,46.64h17.26s16.47-45.07,18.05-48.2c2.13-3.7,4.26-3.93,6.27-3.93,4.26.79,3.15,5.16,3.15,5.16l-17.15,47.03h19.96s18.49-52.96,19.27-56.11c2.36-9.86-6.61-11.76-11.44-11.76"/>
  <path class="st0" d="M659.11,115.22s4.71-14.58-9.31-16.93c-7.17-.78-14.57-1.23-22.42.79-4.51,1.57-12.89,4.71-18.5,15.37-.67,2.24-1.9,6.27-1.9,6.27l18.83-.11s1.57-9.75,9.76-10.88c2,0,6.72,1.12,5.15,6.17-.79,2.35-3.15,7.96-13.51,10.03-3.31.95-17.48,2.91-27.29,14.29-3.48,3.92-12.57,24.43,3.14,27.57,2.69,0,11.99,2.13,21.63-7.51.34-.47.03,5.21.03,5.21h17.58s.9-6.55,2.01-10.36c1.13-3.82,14.8-39.91,14.8-39.91M627.72,148.29c-1.68,3.47-5.04,5.94-7.86,5.94-6.15,0-5.82-4.37-4.25-8.75,4.25-8.97,18.05-11.66,18.05-11.66-.79,2.02-4.26,10.99-5.94,14.46"/>
  <polygon class="st0" points="716.49 99.43 698.42 99.43 685.12 117.58 685.91 99.43 667.86 99.43 670.2 132.48 643.83 165.5 662.71 165.44 675.7 147.05 675.7 165.5 694.06 165.5 690.28 132.48 716.49 99.43"/>
  <path class="st2" d="M291.66,238.94c-.92,0-2.05-.2-3.41-.59-1.36-.4-2.41-.82-3.15-1.27l.95-3.37c.8.41,1.72.76,2.74,1.07,1.02.31,1.96.46,2.81.46,1.31,0,2.3-.2,2.97-.61.68-.41,1.01-1,1.01-1.76,0-.53-.27-1.02-.8-1.46-.53-.44-1.36-.96-2.47-1.56l-.98-.58c-1.46-.85-2.62-1.59-3.48-2.21-.86-.62-1.6-1.35-2.22-2.2-.62-.84-.93-1.79-.93-2.84,0-1.11.3-2.11.91-3,.61-.89,1.49-1.58,2.63-2.08,1.14-.5,2.51-.75,4.1-.75,1.87,0,3.96.54,6.27,1.64l-1.4,3.34c-.89-.43-1.7-.76-2.43-.99-.73-.23-1.52-.35-2.37-.35-.98,0-1.78.19-2.4.56-.62.38-.93.93-.93,1.65,0,.62.24,1.14.73,1.56.49.42,1.29.95,2.4,1.59l1.04.58.95.55c1.28.73,2.31,1.36,3.07,1.91.76.54,1.4,1.21,1.91,1.99.51.78.77,1.69.77,2.74,0,1.18-.32,2.21-.96,3.11-.64.9-1.59,1.6-2.84,2.12-1.25.51-2.75.77-4.49.77"/>
  <path class="st2" d="M307.08,218.41c0,.66-.23,1.22-.7,1.67-.47.45-1.04.67-1.71.67s-1.21-.23-1.67-.67c-.46-.45-.69-1-.69-1.67s.23-1.22.69-1.67c.46-.45,1.01-.67,1.67-.67s1.25.22,1.71.67c.47.45.7,1,.7,1.67M306.81,238.52h-4.25v-15.56h4.25v15.56Z"/>
  <path class="st2" d="M317.4,222.55c1.59,0,2.93.36,4.02,1.09,1.09.73,1.89,1.7,2.42,2.93.52,1.23.78,2.6.78,4.12v1.28h-10.68c.22,1.09.69,1.92,1.42,2.5.73.58,1.85.87,3.35.87.87,0,1.65-.12,2.35-.35.7-.24,1.45-.58,2.25-1.03l1.24,3.01c-.81.62-1.68,1.1-2.61,1.43-.94.33-2.05.5-3.33.5-3.01,0-5.29-.72-6.84-2.16-1.56-1.44-2.33-3.44-2.33-5.98,0-1.65.32-3.09.96-4.33.64-1.24,1.56-2.2,2.76-2.87,1.2-.67,2.61-1.01,4.25-1.01M317.3,226.11c-.87,0-1.6.26-2.19.79-.59.52-.97,1.29-1.14,2.29h6.63c-.22-1.03-.61-1.8-1.16-2.31-.55-.51-1.27-.77-2.14-.77"/>
  <path class="st2" d="M351.69,228.13v10.39h-4.25v-9.56c0-1.01-.16-1.76-.47-2.28-.32-.51-.81-.77-1.49-.77s-1.25.15-1.8.45c-.55.3-1.24.75-2.09,1.35v10.81h-4.25v-9.56c0-1.01-.16-1.76-.47-2.28-.32-.51-.81-.77-1.49-.77s-1.25.15-1.8.45c-.54.3-1.25.76-2.12,1.38v10.78h-4.25v-15.56h2.78l.72,1.67c.98-.69,1.99-1.22,3.04-1.6,1.04-.38,1.96-.58,2.74-.58,2.16,0,3.61.71,4.38,2.12.98-.66,1.98-1.18,3-1.56,1.02-.37,1.93-.56,2.71-.56,1.81,0,3.11.48,3.9,1.43.79.95,1.19,2.37,1.19,4.25"/>
  <path class="st2" d="M370.5,230.69c0,1.62-.32,3.06-.96,4.3-.64,1.24-1.57,2.2-2.79,2.89-1.22.68-2.67,1.03-4.34,1.03-.89,0-1.84-.25-2.84-.74v7.73h-4.21v-22.93h2.15l.85,1.06c1.28-.98,2.68-1.47,4.18-1.47,2.46,0,4.4.73,5.83,2.2,1.43,1.47,2.14,3.45,2.14,5.95M366.12,230.69c0-1.37-.33-2.47-1-3.32-.67-.84-1.58-1.27-2.76-1.27-.91,0-1.85.31-2.81.93v7.41c.89.6,1.83.9,2.81.9,1.15,0,2.07-.43,2.74-1.3.67-.87,1.01-1.98,1.01-3.35"/>
  <path class="st2" d="M380.32,227.07c-1.06.51-2.04,1.17-2.96,1.96v9.49h-4.25v-15.56h2.22l1.4,2.6c.76-.66,1.65-1.26,2.68-1.8,1.02-.53,1.93-.8,2.71-.8l.85,3.34c-.72,0-1.61.26-2.66.77"/>
  <path class="st2" d="M392.09,222.55c1.59,0,2.93.36,4.02,1.09,1.09.73,1.89,1.7,2.42,2.93.52,1.23.78,2.6.78,4.12v1.28h-10.68c.22,1.09.69,1.92,1.42,2.5.73.58,1.85.87,3.35.87.87,0,1.65-.12,2.35-.35.7-.24,1.45-.58,2.25-1.03l1.24,3.01c-.81.62-1.68,1.1-2.61,1.43-.94.33-2.05.5-3.33.5-3.01,0-5.29-.72-6.84-2.16-1.56-1.44-2.33-3.44-2.33-5.98,0-1.65.32-3.09.96-4.33.64-1.24,1.56-2.2,2.76-2.87,1.2-.67,2.61-1.01,4.25-1.01M391.99,226.11c-.87,0-1.6.26-2.19.79-.59.52-.97,1.29-1.14,2.29h6.63c-.22-1.03-.61-1.8-1.16-2.31-.55-.51-1.27-.77-2.14-.77"/>
  <path class="st2" d="M416,237.27c1.02,0,1.8-.08,2.33-.24.53-.16,1.21-.44,2.04-.85l.65,1.44c-.61.38-1.42.7-2.42.95-1,.25-1.86.37-2.58.37-1.52,0-2.85-.35-3.97-1.04-1.12-.69-1.98-1.67-2.56-2.92-.59-1.25-.88-2.69-.88-4.31,0-1.54.32-2.93.95-4.17.63-1.24,1.52-2.21,2.68-2.9s2.49-1.04,4.02-1.04c.67,0,1.51.13,2.51.38,1,.26,1.81.58,2.42.96l-.65,1.41c-.78-.39-1.46-.66-2.04-.83-.58-.17-1.36-.26-2.34-.26-1.7,0-3.03.6-4,1.8-.97,1.2-1.46,2.74-1.49,4.62,0,1.99.46,3.59,1.37,4.81.92,1.22,2.23,1.83,3.95,1.83"/>
  <path class="st2" d="M430.53,222.55c2.24,0,3.91.75,5,2.26,1.09,1.51,1.63,3.52,1.63,6.05h-11.76c.02,1.99.5,3.56,1.44,4.73.94,1.17,2.42,1.75,4.44,1.75.87,0,1.7-.11,2.48-.34.78-.22,1.61-.56,2.48-1.01l.68,1.48c-.94.49-1.81.86-2.63,1.11-.82.25-1.79.37-2.92.37-2.66,0-4.66-.75-6.01-2.25-1.35-1.5-2.02-3.51-2.02-6.03.02-2.42.66-4.37,1.91-5.87,1.25-1.5,3.01-2.25,5.27-2.25M430.43,224.22c-1.5,0-2.67.48-3.5,1.43-.83.95-1.32,2.23-1.47,3.83h9.64c-.35-3.51-1.9-5.26-4.67-5.26"/>
  <path class="st2" d="M445.08,225.43c-1.08.6-1.96,1.26-2.63,1.99v11.1h-2.02v-15.56h1.34l.59,2.47c.74-.6,1.61-1.16,2.6-1.68s1.86-.79,2.6-.79l.56,1.57c-.94,0-1.94.3-3.02.9"/>
  <path class="st2" d="M456.95,237.27c1.02,0,1.8-.08,2.33-.24.53-.16,1.21-.44,2.04-.85l.65,1.44c-.61.38-1.42.7-2.42.95-1,.25-1.86.37-2.58.37-1.52,0-2.85-.35-3.97-1.04-1.12-.69-1.98-1.67-2.56-2.92-.59-1.25-.88-2.69-.88-4.31,0-1.54.32-2.93.95-4.17.63-1.24,1.52-2.21,2.68-2.9s2.49-1.04,4.02-1.04c.67,0,1.51.13,2.51.38,1,.26,1.81.58,2.42.96l-.65,1.41c-.78-.39-1.46-.66-2.04-.83-.58-.17-1.36-.26-2.34-.26-1.7,0-3.03.6-4,1.8-.97,1.2-1.46,2.74-1.49,4.62,0,1.99.46,3.59,1.37,4.81.92,1.22,2.23,1.83,3.95,1.83"/>
  <path class="st2" d="M471.13,224.22c-1.02,0-1.82.09-2.4.26-.58.17-1.29.45-2.14.83l-.62-1.41c.57-.38,1.37-.71,2.42-.96,1.05-.26,1.93-.38,2.65-.38,1.81,0,3.24.46,4.31,1.38,1.07.92,1.6,2.15,1.6,3.69v10.9h-1.67l-.26-1.67c-.55.56-1.27,1.04-2.17,1.46-.9.42-1.79.62-2.66.62-1.72,0-3.04-.44-3.95-1.33-.92-.89-1.37-2.04-1.37-3.45s.52-2.6,1.57-3.43c1.05-.83,2.4-1.24,4.08-1.22h4.41v-1.57c0-1.13-.32-2.04-.96-2.71-.64-.67-1.58-1.01-2.83-1.01M470.44,230.82c-1.13,0-2.01.32-2.65.96-.63.64-.95,1.43-.95,2.37,0,.83.27,1.57.82,2.2.54.63,1.36.95,2.45.95.96,0,1.85-.24,2.66-.72.82-.48,1.53-1.08,2.14-1.81v-3.95h-4.47Z"/>
  <path class="st2" d="M491.57,223.29h2.87l.69,1.51h-3.56v9.78c0,.81.18,1.46.54,1.93.36.47.92.71,1.68.71.43,0,.88-.1,1.34-.29l.39,1.64c-.07.02-.28.09-.65.21-.37.12-.87.18-1.5.18-1.18,0-2.11-.36-2.81-1.07-.7-.72-1.05-1.74-1.05-3.06v-10.01h-2.32l-.03-1.51h2.35v-4.04l2.06-.71v4.75Z"/>
  <path class="st2" d="M503.43,237.21c.83,0,1.79-.3,2.89-.91s2.01-1.36,2.73-2.26v-11.1h2.03v15.59h-1.67l-.33-2.4c-.68.77-1.58,1.43-2.71,1.97-1.13.54-2.19.82-3.17.82-1.63,0-2.85-.47-3.66-1.41-.8-.94-1.21-2.19-1.21-3.75v-10.78h2.02v10.39c0,2.57,1.02,3.85,3.07,3.85"/>
  <polygon class="st2" points="527.17 222.96 521.39 238.52 521.29 238.52 521.29 245.9 519.23 245.9 519.23 238.52 513.52 223.38 515.22 222.55 520.31 235.99 525.21 222.96 527.17 222.96"/>
  <path class="st2" d="M535.79,238.94c-1.48,0-2.76-.35-3.84-1.06-1.08-.71-1.9-1.68-2.47-2.93-.57-1.25-.85-2.68-.85-4.28.02-1.54.34-2.92.95-4.15.61-1.23,1.49-2.2,2.63-2.9s2.48-1.06,4-1.06c2.33,0,4.14.73,5.42,2.2,1.28,1.46,1.93,3.49,1.93,6.08,0,1.56-.32,2.96-.95,4.19-.63,1.23-1.54,2.19-2.71,2.89-1.18.69-2.55,1.04-4.12,1.04M541.51,230.85c0-1.99-.46-3.59-1.37-4.81-.91-1.22-2.23-1.83-3.95-1.83s-3.03.6-4,1.8c-.97,1.2-1.46,2.74-1.49,4.62,0,1.99.46,3.59,1.37,4.81.91,1.22,2.23,1.83,3.95,1.83s3.03-.6,4-1.8c.97-1.2,1.46-2.74,1.49-4.62"/>
  <path class="st2" d="M548.79,236.98c0,.43-.15.79-.46,1.09-.31.3-.66.45-1.08.45-.44,0-.81-.15-1.11-.45-.31-.3-.46-.66-.46-1.09,0-.41.15-.75.46-1.04.3-.29.67-.43,1.11-.43.41,0,.77.15,1.08.43.3.29.46.64.46,1.04"/>
</svg>